<svg width="151" height="53" viewBox="0 0 151 53" fill="none" xmlns="http://www.w3.org/2000/svg">
<path d="M7.5332 15.0205L4 34.4141L4.33553 43.4042L9.89474 45.3336L16.9463 36.6519L23.5137 21.1681M31.2941 25.2017L28.4276 41.7395L29.2466 48.5966L46.4454 49M32.5225 38.5126L45.6264 37.3025M33.3415 27.6218H41.5314L48.4929 26.4118M72.6531 26.4118L62.0062 24.395L54.6353 25.2017V35.2857L71.0151 37.3025L73.8816 43.7563L62.8252 49L53.4068 43.7563M98.0418 18.3445L85.757 19.1513L79.6145 23.5882L80.843 29.6387L98.0418 28.8319L102.956 37.3025L94.7659 40.1261L80.4335 39.7227M102.956 11.4874L107.46 26.4118L114.421 35.2857L129.982 30.4454M110.326 22.7815L123.84 21.1681M105.003 11.4874L125.068 10.2773M129.982 1L131.62 18.3445L135.715 29.6387H146.362L148 21.1681" stroke="white" stroke-width="6"/>
</svg>
