<svg width="301" height="104" viewBox="0 0 301 104" fill="none" xmlns="http://www.w3.org/2000/svg">
<path d="M14.0664 29.0409L7 67.8282L7.67105 85.8083L18.7895 89.6672L32.8926 72.3039L46.0273 41.3361M61.5881 49.4034L55.8552 82.479L57.4932 96.1933L91.8908 97M64.0451 76.0252L90.2528 73.605M65.6831 54.2437H82.0629L95.9857 51.8235M144.306 51.8235L123.012 47.7899L108.271 49.4034V69.5714L141.03 73.605L146.763 86.5126L124.65 97L105.814 86.5126M195.084 35.6891L170.514 37.3025L158.229 46.1765L160.686 58.2773L195.084 56.6639L204.912 73.605L188.532 79.2521L159.867 78.4454M204.912 21.9748L213.92 51.8235L227.843 69.5714L258.964 59.8908M219.653 44.563L246.68 41.3361M209.006 21.9748L249.137 19.5546M258.964 1L262.24 35.6891L270.43 58.2773H291.724L295 41.3361" stroke="black" stroke-width="12"/>
</svg>
