<svg width="201" height="70" viewBox="0 0 201 70" fill="none" xmlns="http://www.w3.org/2000/svg">
<path d="M9.71093 19.694L5 45.5522L5.44737 57.5389L12.8597 60.1115L22.2617 48.5359L31.0182 27.8908M41.3921 33.2689L37.5701 55.3193L38.6621 64.4622L61.5938 65M43.0301 51.0168L60.5019 49.4034M44.1221 36.4958H55.0419L64.3238 34.8824M96.5375 34.8824L82.3417 32.1933L72.5137 33.2689V46.7143L94.3535 49.4034L98.1755 58.0084L83.4337 65L70.8757 58.0084M130.389 24.1261L114.009 25.2017L105.819 31.1176L107.457 39.1849L130.389 38.1092L136.941 49.4034L126.021 53.1681L106.911 52.6303M136.941 14.9832L142.947 34.8824L152.229 46.7143L172.976 40.2605M146.769 30.042L164.786 27.8908M139.671 14.9832L166.424 13.3697M172.976 1L175.16 24.1261L180.62 39.1849H194.816L197 27.8908" stroke="#7070FF" stroke-width="8"/>
</svg>
